<svg xmlns="http://www.w3.org/2000/svg" viewBox="0 0 513.08 511.41"><title>Asset 13</title><g id="Layer_2" data-name="Layer 2"><g id="Cricket"><rect width="511.24" height="511.24" rx="74.99" style="fill:#e6e7e8"/><path d="M199.83,206.48l10.87,4.11,8.59-.84,16.34-5.93,15-16.92,5-20.06-8.66-21-15.7-9.67-3.54-1.21-22.64,4.35-13.83,16.8s-7.14,16.32-7.26,17.41,3,11.6,3,13.65,7.37,17.65,7.37,17.65Z" style="fill:#ef4136"/><path d="M235.63,136.14s-24.84-2.26-39.61,19.4,2.9,50.94,2.9,50.94L179.7,191.16l-5.16-21.3,7.7-23.29L200,132.4l25.47-2.06Z" style="fill:#be1e2d"/><path d="M214.7,219.41a48.52,48.52,0,1,1-.08-97,50.17,50.17,0,0,1,5.76.34,48.52,48.52,0,0,1-2.66,96.6C216.71,219.38,215.71,219.41,214.7,219.41Zm-.08-85.68A37.13,37.13,0,1,0,219,134,38.14,38.14,0,0,0,214.62,133.73Z" style="fill:#414042"/><line x1="120.72" y1="161.18" x2="47.58" y2="161.01" style="fill:#fff"/><path d="M120.72,166.86h0l-73.14-.16a5.69,5.69,0,0,1,0-11.37h0l73.13.17a5.68,5.68,0,0,1,0,11.36Z" style="fill:#414042"/><line x1="166.43" y1="99.67" x2="119.98" y2="31.26" style="fill:#fff"/><path d="M166.44,105.35a5.68,5.68,0,0,1-4.71-2.49L115.28,34.45a5.68,5.68,0,0,1,9.4-6.39l46.45,68.41a5.68,5.68,0,0,1-4.69,8.88Z" style="fill:#414042"/><line x1="143.2" y1="132.4" x2="56.59" y2="95.9" style="fill:#fff"/><path d="M143.2,138.08a5.55,5.55,0,0,1-2.2-.45L54.38,101.14A5.68,5.68,0,1,1,58.8,90.67l86.61,36.49a5.68,5.68,0,0,1-2.21,10.92Z" style="fill:#414042"/><path d="M229.19,476l48.21-79.59c3.49-5.77,3.19-4.5-2.57-8l-10.74-6.5c-5.76-3.49-4.06-3.91-7.55,1.85l-48.21,79.6a12.18,12.18,0,0,0,4.11,16.74h0A12.2,12.2,0,0,0,229.19,476Z" style="fill:#e52525"/><path d="M218.73,487.52a17.87,17.87,0,0,1-15.26-27.13l48.21-79.59c.51-.85.9-1.55,1.22-2.12,1.08-1.94,2.31-4.14,5.21-4.85s5,.67,6.86,1.88c.54.36,1.22.8,2.07,1.32l10.73,6.5c.83.5,1.54.9,2.14,1.23,2.08,1.17,4.43,2.48,5.21,5.47s-.57,5.33-2.32,8.2l-.54.89-48.21,79.59A17.87,17.87,0,0,1,218.73,487.52ZM261.3,386.84l-48.11,79.44A6.51,6.51,0,1,0,224.33,473l48.12-79.45-.57-.33ZM229.19,476h0Z" style="fill:#414042"/><rect x="1.84" y="0.17" width="511.24" height="511.24" rx="74.99" style="fill:none"/><polygon points="386.19 109.31 377.49 115.84 253.49 323.96 246.96 341.73 249.5 355.14 255.62 367.83 266.18 379.32 277.78 387.05 293.74 390.31 309.69 388.5 328.18 379.32 457.26 157.53 457.26 145.93 449.65 139.77 403.24 112.57 389.46 107.86 386.19 109.31" style="fill:#ffecb0"/><polygon points="425.28 125.49 269.81 384.15 291.56 390.31 314.16 388.02 331.16 374.21 459.98 154 454.36 142.4 431.79 129.34 425.28 125.49" style="fill:#e5cd89"/><path d="M297.45,400.32a50.14,50.14,0,0,1-25.43-7l-8.34-4.89a50.43,50.43,0,0,1-18-69L366.75,113.1a28.08,28.08,0,0,1,38.42-10l51.16,30a23.16,23.16,0,0,1,8.26,31.69L341,375.38a50.65,50.65,0,0,1-43.59,24.94Zm-19.68-16.76a39.08,39.08,0,0,0,53.48-13.93L454.79,159.05a11.81,11.81,0,0,0-4.21-16.14l-51.16-30a16.73,16.73,0,0,0-22.87,6l-121,206.34a39.08,39.08,0,0,0,13.93,53.48l8.34,4.89Z" style="fill:#414042"/></g></g></svg>