<svg xmlns="http://www.w3.org/2000/svg" viewBox="0 0 509.46 509.46"><title>Asset 12</title><g id="Layer_2" data-name="Layer 2"><g id="Football"><rect width="509.46" height="509.46" rx="73.91" style="fill:#e6e7e8"/><path d="M351.17,307A125.66,125.66,0,1,1,240.36,182.17,125.75,125.75,0,0,1,351.17,307Z" style="fill:#fff"/><path d="M225.43,438.43C153,438.43,94,379.48,94,307s58.95-131.4,131.4-131.4a132.89,132.89,0,0,1,15.6.92A131.36,131.36,0,0,1,356.83,307C356.83,379.48,297.89,438.43,225.43,438.43Zm0-251.48a120,120,0,1,0,14.27.84A120.22,120.22,0,0,0,225.43,187Z" style="fill:#414042"/><path d="M274.31,195.45l4.94,40.36h42.28S304.78,202.32,274.31,195.45Z" style="fill:#50b9a4"/><path d="M330.68,241.47H274.24l-6.52-53.3,7.84,1.76c32.71,7.37,50.3,41.88,51,43.34Zm-46.42-11.33h27.15c-5.7-8.23-16.09-20.54-30.4-26.6Z" style="fill:#414042"/><path d="M135.27,231.53l40.59,2.19,7.39-41.62S147.35,202.73,135.27,231.53Z" style="fill:#50b9a4"/><path d="M180.56,239.64l-53.62-2.89,3.11-7.41c13-30.92,50-42.2,51.59-42.67l8.78-2.6ZM144.4,226.36l26.76,1.44,4.75-26.73C166.81,205.24,152.87,213.32,144.4,226.36Z" style="fill:#414042"/><path d="M121,369.61l19.4-35.73-34.42-24.53S100.12,346.34,121,369.61Z" style="fill:#50b9a4"/><path d="M122.09,379.37l-5.36-6c-22.36-25-16.65-63.3-16.4-64.92l1.42-9.05,46,32.76Zm-11.22-59.54c-.13,10,1.18,26.07,9.33,39.31L133,335.59Z" style="fill:#414042"/><path d="M253.88,421.61l-30.49-26.89-31.61,28.06S226.54,436.71,253.88,421.61Z" style="fill:#50b9a4"/><path d="M224.08,434.33A101.4,101.4,0,0,1,189.67,428l-8.5-3.41,42.21-37.47,40.27,35.52-7,3.89C246,432.43,234.5,434.33,224.08,434.33Zm-21-14c9.73,2.37,25.68,4.68,40.4-.29l-20.1-17.73Z" style="fill:#414042"/><path d="M344.87,316.18,309.7,336.57l16.59,38.88S350.52,346.9,344.87,316.18Z" style="fill:#50b9a4"/><path d="M324.67,386.09l-22.15-51.91L349,307.26l1.46,7.9c6.06,33-18.78,62.7-19.84,63.95ZM316.87,339l10.65,25c5.34-8.48,12.58-22.87,12.54-38.42Z" style="fill:#414042"/><polygon points="196.61 262.76 253.45 262.76 271.55 317.48 225.43 351.29 179.31 317.48 196.61 262.76" style="fill:#7fccbd"/><polygon points="197.04 261.47 253.88 261.47 271.98 316.18 225.86 350 179.75 316.18 197.04 261.47" style="fill:#50b9a4"/><path d="M225.86,357l-52.74-38.67,19.77-62.54H258l20.68,62.5Zm-39.49-43,39.49,29,39.45-28.93-15.52-46.92h-48.6Z" style="fill:#414042"/><line x1="247.7" y1="160.11" x2="277.57" y2="93.62" style="fill:#fff"/><path d="M247.7,165.77a5.66,5.66,0,0,1-5.16-8L272.41,91.3a5.66,5.66,0,0,1,10.32,4.64l-29.87,66.48A5.65,5.65,0,0,1,247.7,165.77Z" style="fill:#414042"/><line x1="302.66" y1="180.19" x2="353.4" y2="115.26" style="fill:#fff"/><path d="M302.65,185.85a5.66,5.66,0,0,1-4.45-9.15l50.74-64.93a5.66,5.66,0,0,1,8.92,7l-50.74,64.92A5.66,5.66,0,0,1,302.65,185.85Z" style="fill:#414042"/><line x1="277.57" y1="164.75" x2="357.61" y2="34.33" style="fill:#fff"/><path d="M277.56,170.41a5.58,5.58,0,0,1-2.95-.84,5.64,5.64,0,0,1-1.86-7.78l80-130.43a5.66,5.66,0,0,1,9.65,5.93L282.39,167.71A5.64,5.64,0,0,1,277.56,170.41Z" style="fill:#414042"/><line x1="345.83" y1="213.89" x2="463.36" y2="115.26" style="fill:#fff"/><path d="M345.83,219.55a5.66,5.66,0,0,1-3.64-10l117.53-98.63A5.66,5.66,0,0,1,467,119.6L349.47,218.23A5.63,5.63,0,0,1,345.83,219.55Z" style="fill:#414042"/><polygon points="194.31 319.84 208.99 276.2 252.92 276.5 249.84 267.13 201.15 267.13 186.4 314.04 194.31 319.84" style="fill:#7fccbd"/></g></g></svg>