<svg id="Layer_1" enable-background="new 0 0 512.017 512.017" height="512" viewBox="0 0 512.017 512.017" width="512" xmlns="http://www.w3.org/2000/svg"><g><path d="m360.279 96.747c-46.54-55.65-92.48-91.82-94.41-93.33-10.487-8.203-25.86-.707-25.86 12.6v70.36c0 36.332-48.081 49.118-66.1 17.54-5.603-9.794-19.227-10.826-26.28-2.21-48.421 59.092-91.62 133.599-91.62 210.31 0 110.28 89.72 200 200 200s200-89.72 200-200c0-78.696-45.439-155.128-95.73-215.27zm-192.27 159.27c0-17.65 14.36-32 32-32s32 14.35 32 32-14.36 32-32 32-32-14.35-32-32zm44.63 137.82c-5.396 6.955-15.452 8.25-22.45 2.81-6.98-5.43-8.23-15.48-2.81-22.45l112-144c5.43-6.98 15.48-8.23 22.45-2.81 6.98 5.43 8.23 15.48 2.81 22.45zm99.37 6.18c-17.64 0-32-14.35-32-32s14.36-32 32-32 32 14.35 32 32-14.36 32-32 32z"/></g></svg>